<mxfile host="Electron" modified="2024-03-14T22:30:26.720Z" agent="Mozilla/5.0 (Windows NT 10.0; Win64; x64) AppleWebKit/537.36 (KHTML, like Gecko) draw.io/24.0.4 Chrome/120.0.6099.109 Electron/28.1.0 Safari/537.36" etag="Kd9qGzYAoVjzSymZgB0o" version="24.0.4" type="device">
  <diagram name="PÃ¡gina-1" id="KF7TtD87UV1UO03ZOMRP">
    <mxGraphModel dx="366" dy="276" grid="1" gridSize="10" guides="1" tooltips="1" connect="1" arrows="1" fold="1" page="1" pageScale="1" pageWidth="827" pageHeight="1169" math="0" shadow="0">
      <root>
        <mxCell id="0" />
        <mxCell id="1" parent="0" />
        <mxCell id="6nhytrM8JJNRbH75s32Q-1" value="" style="rounded=0;whiteSpace=wrap;html=1;" vertex="1" parent="1">
          <mxGeometry x="160" y="140" width="120" height="40" as="geometry" />
        </mxCell>
        <mxCell id="6nhytrM8JJNRbH75s32Q-2" value="" style="triangle;whiteSpace=wrap;html=1;rotation=-90;" vertex="1" parent="1">
          <mxGeometry x="208.75" y="211.88" width="22.5" height="38.75" as="geometry" />
        </mxCell>
        <mxCell id="6nhytrM8JJNRbH75s32Q-3" style="edgeStyle=orthogonalEdgeStyle;rounded=0;orthogonalLoop=1;jettySize=auto;html=1;endArrow=none;endFill=0;" edge="1" parent="1" target="6nhytrM8JJNRbH75s32Q-1">
          <mxGeometry relative="1" as="geometry">
            <mxPoint x="220.5" y="220" as="sourcePoint" />
            <mxPoint x="221" y="190" as="targetPoint" />
            <Array as="points">
              <mxPoint x="221" y="200" />
              <mxPoint x="220" y="200" />
            </Array>
          </mxGeometry>
        </mxCell>
        <mxCell id="6nhytrM8JJNRbH75s32Q-11" style="edgeStyle=orthogonalEdgeStyle;rounded=0;orthogonalLoop=1;jettySize=auto;html=1;entryX=0;entryY=0.25;entryDx=0;entryDy=0;" edge="1" parent="1" source="6nhytrM8JJNRbH75s32Q-4" target="6nhytrM8JJNRbH75s32Q-2">
          <mxGeometry relative="1" as="geometry">
            <mxPoint x="220" y="265.63" as="targetPoint" />
          </mxGeometry>
        </mxCell>
        <mxCell id="6nhytrM8JJNRbH75s32Q-4" value="&lt;font style=&quot;font-size: 9px;&quot;&gt;ES CONTA&lt;/font&gt;" style="rounded=0;whiteSpace=wrap;html=1;" vertex="1" parent="1">
          <mxGeometry x="80" y="250.63" width="91.25" height="30" as="geometry" />
        </mxCell>
        <mxCell id="6nhytrM8JJNRbH75s32Q-10" style="edgeStyle=orthogonalEdgeStyle;rounded=0;orthogonalLoop=1;jettySize=auto;html=1;entryX=0.5;entryY=0;entryDx=0;entryDy=0;" edge="1" parent="1" source="6nhytrM8JJNRbH75s32Q-7" target="6nhytrM8JJNRbH75s32Q-2">
          <mxGeometry relative="1" as="geometry" />
        </mxCell>
        <mxCell id="6nhytrM8JJNRbH75s32Q-7" value="&lt;font style=&quot;font-size: 9px;&quot;&gt;ES LETRA&lt;/font&gt;" style="rounded=0;whiteSpace=wrap;html=1;" vertex="1" parent="1">
          <mxGeometry x="80" y="200" width="91.25" height="30" as="geometry" />
        </mxCell>
        <mxCell id="6nhytrM8JJNRbH75s32Q-13" style="edgeStyle=orthogonalEdgeStyle;rounded=0;orthogonalLoop=1;jettySize=auto;html=1;entryX=0.5;entryY=1;entryDx=0;entryDy=0;" edge="1" parent="1" source="6nhytrM8JJNRbH75s32Q-8" target="6nhytrM8JJNRbH75s32Q-2">
          <mxGeometry relative="1" as="geometry">
            <mxPoint x="240" y="215" as="targetPoint" />
          </mxGeometry>
        </mxCell>
        <mxCell id="6nhytrM8JJNRbH75s32Q-8" value="&lt;font style=&quot;font-size: 9px;&quot;&gt;ES ENG&lt;/font&gt;" style="rounded=0;whiteSpace=wrap;html=1;" vertex="1" parent="1">
          <mxGeometry x="270" y="200" width="91.25" height="30" as="geometry" />
        </mxCell>
        <mxCell id="6nhytrM8JJNRbH75s32Q-12" style="edgeStyle=orthogonalEdgeStyle;rounded=0;orthogonalLoop=1;jettySize=auto;html=1;entryX=0;entryY=0.75;entryDx=0;entryDy=0;" edge="1" parent="1" source="6nhytrM8JJNRbH75s32Q-9" target="6nhytrM8JJNRbH75s32Q-2">
          <mxGeometry relative="1" as="geometry">
            <mxPoint x="230" y="265.63" as="targetPoint" />
          </mxGeometry>
        </mxCell>
        <mxCell id="6nhytrM8JJNRbH75s32Q-9" value="&lt;font style=&quot;font-size: 9px;&quot;&gt;ES CIENCIA&lt;/font&gt;" style="rounded=0;whiteSpace=wrap;html=1;" vertex="1" parent="1">
          <mxGeometry x="270" y="250.63" width="91.25" height="30" as="geometry" />
        </mxCell>
        <mxCell id="6nhytrM8JJNRbH75s32Q-14" value="DEPART" style="rounded=0;whiteSpace=wrap;html=1;" vertex="1" parent="1">
          <mxGeometry x="414" y="140" width="120" height="40" as="geometry" />
        </mxCell>
        <mxCell id="6nhytrM8JJNRbH75s32Q-15" value="DISC" style="rounded=0;whiteSpace=wrap;html=1;" vertex="1" parent="1">
          <mxGeometry x="414" y="210.63" width="120" height="40" as="geometry" />
        </mxCell>
        <mxCell id="6nhytrM8JJNRbH75s32Q-16" value="PR&lt;span style=&quot;color: rgba(0, 0, 0, 0); font-family: monospace; font-size: 0px; text-align: start; text-wrap: nowrap;&quot;&gt;%3CmxGraphModel%3E%3Croot%3E%3CmxCell%20id%3D%220%22%2F%3E%3CmxCell%20id%3D%221%22%20parent%3D%220%22%2F%3E%3CmxCell%20id%3D%222%22%20value%3D%22DEPART%22%20style%3D%22rounded%3D0%3BwhiteSpace%3Dwrap%3Bhtml%3D1%3B%22%20vertex%3D%221%22%20parent%3D%221%22%3E%3CmxGeometry%20x%3D%22414%22%20y%3D%22140%22%20width%3D%22120%22%20height%3D%2240%22%20as%3D%22geometry%22%2F%3E%3C%2FmxCell%3E%3C%2Froot%3E%3C%2FmxGraphModel%3E&lt;/span&gt;OF" style="rounded=0;whiteSpace=wrap;html=1;fontStyle=0" vertex="1" parent="1">
          <mxGeometry x="414" y="280.63" width="120" height="40" as="geometry" />
        </mxCell>
        <mxCell id="6nhytrM8JJNRbH75s32Q-17" value="ALUNO" style="rounded=0;whiteSpace=wrap;html=1;" vertex="1" parent="1">
          <mxGeometry x="414" y="340" width="120" height="40" as="geometry" />
        </mxCell>
      </root>
    </mxGraphModel>
  </diagram>
</mxfile>
